<?xml version="1.0" standalone="no"?>
<!DOCTYPE svg PUBLIC "-//W3C//DTD SVG 20010904//EN"
 "http://www.w3.org/TR/2001/REC-SVG-20010904/DTD/svg10.dtd">
<svg version="1.0" xmlns="http://www.w3.org/2000/svg"
 width="1024.000000pt" height="1024.000000pt" viewBox="0 0 1024.000000 1024.000000"
 preserveAspectRatio="xMidYMid meet">

<g transform="translate(0.000000,1024.000000) scale(0.100000,-0.100000)"
fill="#000000" stroke="none">
<path d="M4460 7730 c-9 -6 -10 -10 -3 -10 6 0 15 5 18 10 8 12 4 12 -15 0z"/>
<path d="M5783 7613 c4 -6 26 -26 50 -44 39 -30 40 -30 12 -3 -40 38 -71 62
-62 47z"/>
<path d="M4213 7567 c-23 -13 -19 -33 6 -39 9 -2 15 7 16 25 1 15 1 27 1 27
-1 -1 -11 -6 -23 -13z m14 -22 c0 -8 -4 -12 -9 -9 -5 3 -6 10 -3 15 9 13 12
11 12 -6z"/>
<path d="M4132 7495 c-18 -19 -32 -40 -32 -47 0 -9 3 -8 10 2 9 14 15 6 10
-15 -1 -5 8 -1 19 9 21 19 19 41 -2 30 -7 -3 -4 1 5 9 10 8 15 17 11 20 -6 6
12 11 30 8 4 0 7 4 7 9 0 21 -28 9 -58 -25z m18 -31 c0 -8 -19 -13 -24 -6 -3
5 1 9 9 9 8 0 15 -2 15 -3z"/>
<path d="M4210 7475 c0 -26 -4 -35 -17 -35 -9 0 -30 -12 -45 -27 -17 -16 -28
-21 -28 -13 0 9 -6 8 -20 -5 -11 -10 -20 -25 -20 -34 0 -14 -2 -14 -10 -1 -9
13 -11 13 -20 0 -5 -8 -10 -10 -10 -4 0 16 25 35 34 27 4 -4 4 0 1 9 -4 9 -2
19 4 23 6 3 11 13 11 21 0 8 -16 -3 -35 -25 -19 -21 -35 -43 -35 -48 0 -6 -9
-18 -20 -28 -12 -10 -18 -25 -15 -32 2 -8 0 -11 -5 -8 -6 3 -13 -2 -17 -12 -4
-10 -13 -24 -21 -32 -7 -7 -11 -20 -8 -28 3 -8 1 -11 -4 -8 -12 7 -42 -63 -33
-78 3 -5 1 -7 -5 -3 -16 10 -72 -144 -96 -266 -11 -60 -23 -108 -26 -108 -3 0
-17 18 -32 39 l-28 39 14 78 c7 44 12 81 9 84 -2 2 -39 3 -81 2 -180 -4 -417
-114 -605 -282 -100 -90 -187 -218 -232 -341 -47 -129 -48 -342 -2 -412 40
-61 161 -121 326 -161 496 -120 1507 6 2491 311 140 43 484 168 505 183 6 4
37 17 69 30 78 31 322 156 354 181 l25 19 -38 16 c-20 8 -44 13 -53 11 -16 -4
-16 -5 0 -6 24 -2 72 -21 66 -27 -3 -2 -18 0 -33 6 -20 7 -31 8 -39 0 -16 -16
-40 -12 -54 10 -10 16 -23 20 -63 20 -40 0 -58 5 -81 25 -16 14 -39 25 -51 25
-12 1 -38 11 -57 23 -20 12 -50 31 -68 42 -37 23 -42 45 -9 45 l22 1 -22 18
c-13 11 -23 29 -23 40 0 12 -4 21 -10 21 -5 0 -21 11 -35 26 -14 14 -29 23
-34 20 -5 -3 -12 2 -15 11 -6 15 -8 15 -16 3 -8 -12 -10 -10 -10 7 0 13 -9 28
-20 35 -11 7 -20 19 -20 26 0 10 -7 12 -24 8 -25 -6 -52 14 -38 30 4 4 0 3 -9
-4 -13 -10 -15 -7 -11 19 4 29 3 30 -16 20 -11 -6 -23 -16 -25 -23 -3 -7 -6 4
-6 25 l-1 37 -54 0 -55 0 -4 -37 c-2 -21 -2 -5 0 36 4 52 2 71 -6 67 -6 -4
-12 -40 -13 -79 -1 -40 -5 -2 -8 83 l-6 155 -3 -115 c-3 -96 -5 -107 -11 -65
-4 28 -8 102 -9 165 -1 63 -4 116 -6 119 -3 2 -5 -262 -5 -588 l0 -591 -27
-11 c-58 -22 -383 -112 -388 -108 -7 7 -7 1348 0 1359 8 12 -5 13 -24 1 -8 -5
-10 -14 -5 -22 6 -12 5 -12 -9 0 -15 12 -17 11 -17 -2 0 -9 -5 -19 -11 -23 -7
-4 -9 0 -5 12 6 18 -3 19 -277 10 -155 -4 -355 -5 -444 -1 l-163 7 0 49 c0 37
-4 49 -15 49 -10 0 -15 -11 -15 -35z m828 -957 l-3 -493 -160 -32 c-87 -17
-181 -35 -207 -38 l-48 -7 0 531 0 531 210 0 210 0 -2 -492z m-568 -263 l0
-333 -27 -6 c-49 -9 -375 -47 -379 -43 -2 2 -7 684 -4 717 0 3 92 4 205 2
l205 -3 0 -334z m2055 266 c19 -8 19 -8 -3 -20 -26 -14 -44 -7 -35 14 6 17 9
17 38 6z"/>
<path d="M5122 7448 c5 -15 28 -18 29 -3 0 6 -7 12 -17 13 -10 3 -15 -1 -12
-10z"/>
<path d="M5220 7440 c0 -6 7 -10 15 -10 8 0 15 2 15 4 0 2 -7 6 -15 10 -8 3
-15 1 -15 -4z"/>
<path d="M4720 7430 c0 -5 18 -10 40 -10 22 0 40 5 40 10 0 6 -18 10 -40 10
-22 0 -40 -4 -40 -10z"/>
<path d="M5320 7430 l-45 -7 45 -1 c25 -1 52 3 60 8 18 11 13 11 -60 0z"/>
<path d="M5976 7426 c3 -8 13 -17 22 -21 13 -5 13 -2 -3 15 -21 24 -26 25 -19
6z"/>
<path d="M6010 7386 c0 -2 8 -10 18 -17 15 -13 16 -12 3 4 -13 16 -21 21 -21
13z"/>
<path d="M6116 7236 c3 -8 1 -17 -5 -21 -6 -3 -11 -12 -11 -18 0 -7 5 -4 11 6
6 9 15 15 21 11 6 -4 6 2 -1 15 -13 24 -23 29 -15 7z"/>
<path d="M6156 7157 c3 -10 9 -15 12 -12 3 3 0 11 -7 18 -10 9 -11 8 -5 -6z"/>
<path d="M5962 6898 c6 -17 38 -23 38 -8 0 6 -4 8 -10 5 -5 -3 -10 -1 -10 4 0
6 -5 11 -11 11 -6 0 -9 -6 -7 -12z"/>
<path d="M6763 6675 c0 -8 4 -12 9 -9 5 3 6 10 3 15 -9 13 -12 11 -12 -6z"/>
<path d="M6676 6595 c-10 -8 -22 -12 -26 -10 -4 2 -7 -2 -7 -10 0 -11 7 -9 29
6 15 11 28 22 28 25 0 6 -3 5 -24 -11z"/>
<path d="M6599 6543 c-13 -16 -12 -17 4 -4 9 7 17 15 17 17 0 8 -8 3 -21 -13z"/>
<path d="M6620 6380 c-9 -6 -10 -10 -3 -10 6 0 15 5 18 10 8 12 4 12 -15 0z"/>
<path d="M6573 6353 c-19 -7 -16 -19 6 -19 11 0 17 5 14 13 -3 7 -6 13 -7 12
0 0 -7 -3 -13 -6z"/>
<path d="M6508 6319 c-16 -11 -28 -18 -28 -15 0 4 -21 -5 -47 -18 -62 -32
-172 -81 -201 -90 -12 -4 -19 -12 -16 -18 4 -7 2 -8 -4 -4 -6 4 -104 -27 -218
-69 -659 -243 -1360 -409 -2034 -482 -209 -22 -760 -25 -885 -5 -304 51 -493
142 -551 266 -27 59 -31 148 -10 209 12 34 12 36 -1 25 -36 -29 -115 -156
-129 -207 -25 -82 -15 -192 21 -259 46 -84 117 -147 230 -202 160 -79 327
-120 579 -140 735 -58 1983 180 2996 573 171 66 360 148 306 132 -14 -4 -27 3
-43 21 -24 29 -29 44 -13 44 5 0 10 37 12 82 3 81 4 83 33 97 31 15 45 29 45
46 -1 6 -6 3 -13 -5 -25 -30 -52 -39 -72 -24 -19 14 -11 19 22 15 6 -1 24 10
39 24 32 30 20 33 -18 4z m-40 -58 c11 -7 10 -9 -3 -14 -9 -4 -13 -3 -10 2 3
5 -3 12 -12 14 -13 3 -14 5 -3 6 8 0 21 -3 28 -8z m-51 -7 c-3 -3 -12 -4 -19
-1 -8 3 -5 6 6 6 11 1 17 -2 13 -5z"/>
<path d="M7123 6164 c-45 -26 -80 -51 -76 -57 3 -6 1 -7 -5 -3 -6 3 -66 -21
-134 -55 -315 -158 -603 -274 -1008 -407 -849 -279 -1550 -418 -2356 -467
l-229 -14 360 4 c419 4 812 36 1125 90 71 13 253 15 1115 15 638 0 1057 4
1100 10 71 11 170 42 215 68 67 40 99 65 93 75 -3 5 -1 7 4 4 6 -4 21 2 34 12
20 16 22 21 10 35 -11 13 -12 19 -2 29 10 9 11 8 6 -4 -13 -34 14 -28 47 10
46 55 74 103 54 95 -11 -4 -13 0 -10 18 l5 23 -10 -23 c-6 -12 -8 -28 -5 -36
3 -8 1 -17 -4 -20 -5 -3 -9 2 -8 11 1 15 -9 18 -63 20 -43 1 -71 -3 -87 -14
-19 -12 -62 -15 -219 -17 -166 -1 -195 -3 -195 -16 0 -8 -8 0 -17 18 -8 18
-18 30 -21 27 -3 -3 1 -16 8 -30 7 -14 11 -28 7 -31 -3 -3 -13 9 -23 28 -9 18
-20 35 -23 38 -3 3 -14 21 -24 41 -10 20 -28 47 -40 60 -12 13 -28 36 -36 52
-8 15 -18 27 -23 27 -4 0 -8 7 -8 15 0 8 3 15 8 15 10 0 237 129 288 163 21
15 44 27 51 27 7 0 13 4 13 9 0 5 14 14 31 21 19 8 28 18 25 27 -3 8 -1 11 5
8 5 -4 36 10 67 31 86 58 95 66 80 77 -9 6 -5 7 11 3 31 -6 14 10 -19 19 -14
3 -20 3 -15 -2 17 -14 17 -43 0 -43 -8 0 -15 -4 -15 -10 0 -14 -27 -1 -34 16
-4 11 -2 12 14 4 12 -7 21 -7 25 0 3 5 4 11 1 11 -3 1 -10 3 -16 4 -5 1 -13 3
-17 4 -4 0 2 8 13 16 35 26 10 16 -73 -31z m-8 -45 c11 -16 1 -19 -13 -3 -7 8
-8 14 -3 14 5 0 13 -5 16 -11z m55 6 c0 -2 -9 -9 -20 -15 -16 -9 -18 -8 -14 5
5 13 34 22 34 10z"/>
<path d="M6725 6110 c-3 -6 1 -7 9 -4 18 7 21 14 7 14 -6 0 -13 -4 -16 -10z"/>
<path d="M6620 6065 c-14 -8 -20 -14 -15 -14 6 0 21 6 35 14 14 8 21 14 15 14
-5 0 -21 -6 -35 -14z"/>
<path d="M6478 6053 c6 -2 18 -2 25 0 6 3 1 5 -13 5 -14 0 -19 -2 -12 -5z"/>
<path d="M7441 5634 c0 -11 3 -14 6 -6 3 7 2 16 -1 19 -3 4 -6 -2 -5 -13z"/>
<path d="M2750 4266 l0 -584 98 -1 c54 -1 106 1 115 5 16 6 17 49 17 585 l0
579 -115 0 -115 0 0 -584z"/>
<path d="M2008 4814 c-57 -18 -104 -63 -118 -113 -6 -25 -9 -214 -8 -527 l3
-489 120 0 120 0 3 226 c2 225 3 227 25 233 12 3 115 6 230 6 l207 0 0 90 0
90 -231 2 -231 3 0 150 -1 150 262 3 261 2 0 95 0 95 -297 -1 c-230 0 -309 -4
-345 -15z"/>
<path d="M3429 4500 c-132 -17 -252 -110 -304 -236 -25 -61 -28 -82 -28 -179
-1 -91 3 -120 22 -168 65 -166 204 -248 416 -248 116 0 208 24 273 71 l41 29
-26 48 c-14 26 -29 56 -34 65 -8 15 -14 14 -66 -13 -192 -99 -371 -36 -399
140 l-7 41 274 2 274 3 0 85 c-1 132 -44 230 -128 294 -70 54 -195 80 -308 66z
m163 -165 c31 -23 56 -75 60 -125 l3 -35 -162 -3 -163 -2 0 31 c0 42 43 115
83 140 42 26 140 23 179 -6z"/>
<path d="M3916 4478 c4 -7 63 -91 131 -186 68 -95 126 -179 129 -187 4 -8 -51
-95 -135 -213 -78 -110 -141 -202 -141 -204 0 -3 55 -6 121 -6 114 0 123 1
143 23 25 28 156 241 156 255 0 6 5 10 10 10 6 0 10 -5 10 -11 0 -6 37 -68 82
-139 77 -121 84 -129 119 -135 47 -8 229 -3 229 7 0 4 -63 94 -140 202 -77
107 -140 200 -140 206 0 6 41 68 92 138 50 70 111 155 136 190 l44 62 -126 0
-125 0 -43 -62 c-23 -35 -61 -96 -84 -136 l-42 -73 -23 38 c-12 21 -51 82 -86
136 l-63 97 -131 0 c-101 0 -129 -3 -123 -12z"/>
<path d="M5142 4316 l-2 -48 -100 4 c-67 4 -101 2 -104 -6 -2 -6 -5 -3 -5 7
-1 9 -6 17 -12 17 -7 0 -10 -69 -7 -227 3 -207 5 -232 24 -274 37 -80 68 -91
268 -101 94 -5 222 -6 284 -2 l112 6 0 89 0 89 -222 2 -223 3 -5 245 c-3 135
-7 223 -8 196z"/>
<path d="M6593 4070 c2 -205 3 -217 26 -264 50 -101 128 -142 255 -134 85 6
152 37 214 98 23 23 42 38 43 34 1 -15 5 -58 7 -86 l2 -28 105 0 105 0 -1 258
c-1 144 -5 246 -9 232 -9 -27 -9 -27 -16 9 -7 37 -14 38 -14 3 0 -18 -4 -32
-10 -32 -5 0 -11 -17 -11 -37 -1 -24 -3 -29 -6 -15 -2 12 -8 22 -12 22 -13 0
-31 -24 -32 -45 -1 -17 -2 -17 -6 -2 -2 9 -9 15 -14 11 -5 -3 -9 -2 -8 3 1 4
-3 19 -9 33 -10 24 -11 23 -12 -15 l-2 -40 -10 43 c-9 39 -27 58 -29 30 -1 -7
-7 12 -14 42 -12 53 -13 48 -14 -107 l-1 -161 -38 -31 c-77 -61 -178 -63 -233
-5 -22 23 -24 36 -29 149 -3 68 -8 126 -11 130 -4 3 -14 -2 -24 -11 -11 -11
-19 -14 -23 -6 -4 6 -36 12 -72 13 -56 2 -66 5 -72 23 -4 12 -5 1 -2 -24 4
-25 3 -42 -1 -38 -4 4 -11 42 -15 85 -6 57 -8 20 -7 -137z"/>
<path d="M6423 4228 c3 -19 1 -50 -4 -69 l-9 -34 5 37 c2 21 -1 40 -6 43 -5 4
-9 0 -9 -7 0 -20 -52 -39 -88 -32 -28 6 -32 4 -26 -12 3 -11 -4 -4 -16 14 -12
17 -23 32 -25 32 -2 0 -1 -33 2 -72 14 -186 -65 -308 -198 -308 -120 0 -187
87 -198 255 -3 51 -3 91 1 88 5 -2 8 5 8 16 0 27 -15 27 -34 0 -14 -20 -16
-20 -31 -5 -19 19 -32 21 -37 5 -5 -16 -78 -40 -79 -25 0 6 -4 2 -9 -9 -7 -16
-9 -12 -16 24 -7 41 -8 43 -16 20 -16 -41 -13 -180 5 -239 54 -178 175 -267
380 -278 219 -11 373 83 428 259 20 62 28 269 10 241 -7 -11 -10 -10 -15 3 -8
23 -8 27 4 20 6 -3 10 1 10 9 0 9 -7 16 -16 16 -10 0 -14 6 -11 15 4 8 1 17
-5 21 -8 5 -9 -4 -5 -28z m-776 -90 c-3 -8 -6 -5 -6 6 -1 11 2 17 5 13 3 -3 4
-12 1 -19z m810 -30 c-3 -8 -6 -5 -6 6 -1 11 2 17 5 13 3 -3 4 -12 1 -19z"/>
<path d="M5867 4243 c-4 -3 -7 -13 -7 -22 1 -13 3 -13 11 2 11 19 8 33 -4 20z"/>
<path d="M6226 4227 c3 -10 9 -15 12 -12 3 3 0 11 -7 18 -10 9 -11 8 -5 -6z"/>
<path d="M7731 4233 c-1 -6 -4 -20 -7 -30 -5 -17 -5 -17 6 0 6 10 9 23 6 30
-3 9 -5 9 -5 0z"/>
<path d="M7706 4172 c-2 -4 -1 -14 5 -22 7 -12 9 -10 9 8 0 23 -5 28 -14 14z"/>
<path d="M7680 4095 c-1 -18 -4 -23 -7 -12 -2 9 -11 17 -20 17 -9 0 -13 -6 -9
-15 8 -21 -24 -35 -78 -35 -30 0 -46 -4 -46 -12 -1 -7 -10 -2 -20 11 l-20 23
0 -34 c0 -90 55 -221 117 -279 53 -49 79 -64 142 -79 113 -27 255 10 323 84
18 20 36 36 40 36 5 0 8 -25 8 -55 l0 -56 108 3 107 3 -1 135 c0 172 -7 210
-35 203 -11 -3 -23 -12 -26 -19 -3 -8 -14 -14 -24 -14 -10 0 -19 -4 -19 -10 0
-5 -15 -10 -34 -10 -32 0 -35 -3 -39 -32 l-4 -33 -1 33 c-1 17 -7 32 -12 32
-6 0 -8 12 -5 28 4 22 4 23 -4 7 -7 -16 -10 -12 -13 25 -4 41 -5 40 -4 -10 0
-39 -6 -68 -22 -98 -12 -24 -19 -48 -16 -54 4 -7 2 -8 -4 -4 -6 4 -25 -3 -41
-15 -66 -49 -198 -32 -255 31 -14 17 -24 30 -21 30 3 0 1 10 -6 22 -6 11 -17
58 -24 102 -7 45 -14 68 -15 51 l-2 -30 -8 30 -8 30 -2 -30z"/>
<path d="M2373 3333 c-16 -11 -23 -26 -23 -49 0 -40 19 -60 71 -75 48 -15 63
-31 54 -60 -6 -19 -12 -21 -66 -17 -50 4 -59 2 -57 -11 4 -20 66 -36 102 -27
38 9 66 41 66 75 0 33 -17 50 -73 72 -51 20 -66 41 -47 64 11 13 25 16 57 12
44 -5 67 8 42 24 -23 14 -102 9 -126 -8z"/>
<path d="M2616 3265 c37 -70 45 -93 42 -125 -2 -27 1 -41 10 -45 23 -9 30 3
25 43 -4 31 3 53 41 125 45 84 45 87 23 87 -18 0 -29 -12 -51 -57 l-28 -58
-32 58 c-23 43 -37 57 -54 57 -21 0 -20 -4 24 -85z"/>
<path d="M2856 3335 c-13 -10 -20 -27 -20 -50 0 -40 19 -58 77 -77 45 -14 65
-42 46 -65 -10 -11 -27 -14 -66 -11 -61 5 -80 -14 -31 -31 51 -18 93 -13 122
14 44 40 27 105 -31 120 -98 24 -96 99 2 81 24 -5 34 -2 38 8 3 8 -1 17 -9 20
-29 11 -109 5 -128 -9z"/>
<path d="M3060 3335 c0 -11 11 -15 40 -15 l40 0 0 -115 c0 -108 1 -115 20
-115 19 0 20 7 20 115 l0 115 40 0 c29 0 40 4 40 15 0 12 -18 15 -100 15 -82
0 -100 -3 -100 -15z"/>
<path d="M3342 3223 l3 -128 80 0 c68 0 80 3 83 18 3 15 -5 17 -62 17 l-66 0
0 40 0 40 55 0 c42 0 55 3 55 15 0 12 -13 15 -55 15 l-55 0 0 40 0 40 65 0
c51 0 65 3 65 15 0 12 -16 15 -85 15 l-86 0 3 -127z"/>
<path d="M3598 3225 c-3 -114 -1 -125 15 -125 14 0 17 9 18 48 0 26 3 65 7 87
l7 40 30 -72 c19 -46 36 -73 45 -73 9 0 31 30 52 73 l37 72 0 -86 c1 -65 5
-88 15 -92 8 -3 17 -3 20 0 3 4 6 62 6 130 0 121 0 123 -23 123 -18 0 -29 -15
-63 -87 l-41 -88 -42 88 c-31 65 -46 87 -61 87 -17 0 -19 -9 -22 -125z"/>
<path d="M3960 3330 c-21 -21 -26 -55 -10 -80 5 -8 33 -26 62 -40 43 -20 53
-30 53 -50 0 -24 -3 -25 -59 -25 -64 0 -82 -15 -41 -33 68 -31 145 2 145 62 0
39 -21 60 -75 79 -79 28 -69 81 14 75 36 -2 46 0 46 12 0 11 -14 16 -57 18
-47 2 -61 -1 -78 -18z"/>
<path d="M4330 3225 c0 -69 2 -125 4 -125 2 0 11 -3 20 -6 12 -4 15 4 18 43 2
33 8 48 18 50 66 8 94 17 111 34 27 27 24 74 -6 104 -21 22 -33 25 -95 25
l-70 0 0 -125z m135 75 c18 -15 19 -44 3 -57 -7 -6 -30 -13 -50 -17 l-38 -7 0
51 0 52 35 -5 c20 -3 42 -10 50 -17z"/>
<path d="M4602 3224 c3 -113 5 -129 21 -132 14 -3 17 4 17 47 0 49 1 51 28 51
22 0 32 -8 52 -44 15 -28 32 -46 47 -49 29 -5 29 -3 -3 50 l-26 45 22 23 c27
28 30 90 6 113 -11 12 -40 18 -91 20 l-76 4 3 -128z m133 72 c25 -38 3 -66
-52 -66 l-43 0 0 45 0 45 40 0 c31 0 43 -5 55 -24z"/>
<path d="M4880 3225 c0 -118 1 -125 20 -125 19 0 20 7 20 125 0 118 -1 125
-20 125 -19 0 -20 -7 -20 -125z"/>
<path d="M5000 3343 c0 -16 85 -230 97 -243 19 -21 28 -8 72 105 56 145 56
145 33 145 -16 0 -26 -18 -51 -86 -17 -47 -31 -89 -31 -95 0 -5 -4 -9 -10 -9
-5 0 -10 7 -10 15 0 9 -14 52 -31 95 -23 62 -35 80 -50 80 -10 0 -19 -3 -19
-7z"/>
<path d="M5296 3231 c-25 -66 -46 -122 -46 -125 0 -4 9 -6 20 -6 13 0 22 9 26
25 6 23 11 25 63 25 52 0 59 -3 69 -25 7 -14 20 -25 31 -25 17 0 14 12 -28
125 -39 105 -49 125 -67 125 -18 0 -29 -19 -68 -119z m104 -33 c0 -5 -18 -8
-40 -8 l-40 0 14 38 c8 20 17 46 21 57 5 16 10 11 26 -30 10 -27 19 -53 19
-57z"/>
<path d="M5502 3338 c3 -7 21 -14 41 -16 l37 -3 0 -110 c0 -90 3 -111 15 -116
9 -3 18 -4 20 -2 2 2 5 54 7 114 l3 110 38 3 c24 2 37 8 37 18 0 11 -20 14
-101 14 -76 0 -100 -3 -97 -12z"/>
<path d="M5780 3221 l0 -129 78 4 c42 2 80 4 85 4 4 0 7 7 7 15 0 12 -14 15
-65 15 l-65 0 0 40 0 40 55 0 c42 0 55 3 55 15 0 12 -13 15 -55 15 l-55 0 0
40 0 40 65 0 c51 0 65 3 65 15 0 12 -16 15 -85 15 l-85 0 0 -129z"/>
<path d="M6170 3226 l0 -123 39 -7 c50 -8 131 3 128 18 -1 6 -29 13 -62 16
l-60 5 1 108 c1 106 1 107 -23 107 -23 0 -23 -1 -23 -124z"/>
<path d="M6410 3226 c0 -104 3 -125 16 -130 9 -3 20 -4 25 0 5 3 9 61 9 130
l0 124 -25 0 -25 0 0 -124z"/>
<path d="M6560 3221 c0 -124 1 -131 20 -131 19 0 20 7 21 93 l0 92 37 -72 c22
-44 43 -73 52 -73 9 0 30 28 50 68 l35 67 3 -82 c3 -75 5 -83 22 -83 19 0 20
8 20 126 l0 125 -27 -3 c-24 -3 -32 -14 -63 -85 -19 -46 -37 -83 -40 -82 -3 0
-22 37 -42 82 -31 68 -41 83 -63 85 l-25 3 0 -130z"/>
<path d="M6922 3223 c3 -112 5 -128 21 -131 15 -3 17 8 17 127 0 125 -1 131
-20 131 -20 0 -20 -5 -18 -127z"/>
<path d="M7040 3335 c0 -11 11 -15 40 -15 l39 0 3 -112 c3 -97 5 -111 21 -114
15 -2 17 9 17 112 l0 114 40 0 c29 0 40 4 40 15 0 12 -18 15 -100 15 -82 0
-100 -3 -100 -15z"/>
<path d="M7322 3223 l3 -128 70 2 c39 1 76 2 83 2 6 1 12 8 12 16 0 12 -14 15
-65 15 l-65 0 0 40 0 40 55 0 c42 0 55 3 55 15 0 12 -13 15 -55 15 l-55 0 0
40 0 40 65 0 c51 0 65 3 65 15 0 12 -16 15 -85 15 l-86 0 3 -127z"/>
<path d="M7580 3236 c0 -64 -1 -119 -2 -123 -6 -16 130 -14 160 1 68 35 80
142 23 200 -28 28 -38 31 -106 34 l-75 4 0 -116z m119 73 c39 -14 51 -35 51
-92 0 -55 -22 -77 -85 -84 l-45 -6 0 97 c0 94 0 96 24 96 12 0 37 -5 55 -11z"/>
<path d="M2040 3230 c-47 -4 -60 -7 -34 -8 23 -1 75 -5 117 -8 67 -6 77 -5 77
10 0 18 -17 18 -160 6z"/>
<path d="M7960 3230 c0 -6 45 -9 118 -8 106 1 111 2 52 8 -98 11 -170 11 -170
0z"/>
</g>
</svg>
